<?xml version="1.0" standalone="no"?>
<!DOCTYPE svg PUBLIC "-//W3C//DTD SVG 1.1//EN" "http://www.w3.org/Graphics/SVG/1.1/DTD/svg11.dtd" >
<svg xmlns="http://www.w3.org/2000/svg">
<metadata>
This is a custom SVG webfont generated by Font Squirrel.
Copyright   :  The digitally encoded machine readable software for producing the Typefaces licensed to you is copyrighted c 1988 1990 1993 Adobe Systems All Rights Reserved This software is the property of Adobe Systems Incorporated and its licensors and may not be reproduced used  displayed modified disclosed or transferred without the express  written approval of Adobe  The digitally encoded machine readable outline data for producing the Typefaces licensed to you is copyrighted c 1981 LinotypeHell AG andor its subsidiaries All Rights Reserved This data is the property of LinotypeHell AG andor its subsidiaries and may not be reproduced used displayed modified disclosed or  transferred without the express written approval of LinotypeHell AG  andor its subsidiaries 12 pt Helvetica 76 Bold Italic 14472 
</metadata>
<defs>
<font id="HelveticaNeueBoldItalic" horiz-adv-x="1138" >
<font-face units-per-em="2048" ascent="1638" descent="-410" />
<missing-glyph horiz-adv-x="569" />
<glyph unicode=" "  horiz-adv-x="569" />
<glyph unicode="&#x09;" horiz-adv-x="569" />
<glyph unicode="&#xa0;" horiz-adv-x="569" />
<glyph unicode="!" horiz-adv-x="606" d="M-8 0l67 315h324l-68 -315h-323zM172 438l51 627l84 397h309l-86 -397l-215 -627h-143z" />
<glyph unicode="&#x22;" horiz-adv-x="985" d="M260 805v657h219v-657h-219zM641 805v657h219v-657h-219z" />
<glyph unicode="#" d="M53 406l21 184h174l37 254h-170l20 184h174l58 406h198l-57 -406h199l55 406h199l-56 -406h172l-20 -184h-178l-35 -254h172l-21 -184h-178l-55 -406h-199l55 406h-196l-57 -406h-199l57 406h-170zM446 590h199l35 254h-197z" />
<glyph unicode="$" d="M12 492h281q-6 -246 170 -277l82 422l-23 8q-94 33 -147 57.5t-112.5 69.5t-86 114.5t-26.5 168.5q0 217 159.5 329.5t392.5 112.5h7l32 162h99l-35 -176q168 -35 265 -147.5t83 -299.5h-281q8 152 -116 203l-68 -362q76 -23 123 -41.5t104.5 -52t89 -73.5t54 -104.5 t22.5 -148.5q0 -127 -49 -224.5t-132 -153.5t-180 -85t-204 -29l-35 -178h-100l37 184q-414 48 -406 521zM430 1077q0 -117 166 -168l66 348h-15q-82 0 -149.5 -47t-67.5 -133zM561 205q94 0 167 53t73 160q0 125 -162 188z" />
<glyph unicode="%" horiz-adv-x="1972" d="M150 987q0 195 103 335t292 140q156 0 239.5 -78.5t83.5 -232.5q0 -199 -112.5 -343t-304.5 -144q-145 0 -223 89t-78 234zM358 -45l1102 1524h174l-1099 -1524h-177zM358 950q0 -133 107 -133q68 0 115 73t63 153.5t16 150.5q0 45 -26.5 80t-71.5 35q-74 0 -123 -66.5 t-64.5 -142.5t-15.5 -150zM1110 295q0 195 103.5 335t291.5 140q156 0 240 -79t84 -232q0 -199 -112.5 -343.5t-305.5 -144.5q-145 0 -223 89.5t-78 234.5zM1319 258q0 -133 106 -133q68 0 115 72.5t63.5 153.5t16.5 151q0 45 -27.5 79.5t-70.5 34.5q-74 0 -123 -66.5 t-64.5 -142t-15.5 -149.5z" />
<glyph unicode="&#x26;" horiz-adv-x="1402" d="M33 375q0 305 395 465q-98 162 -98 258q0 178 111.5 279.5t291.5 101.5q162 0 272.5 -87t110.5 -245q0 -94 -56 -175t-118.5 -125t-161.5 -97l158 -254q76 78 106 206h261q-45 -246 -232 -415l187 -287h-320l-66 115q-174 -143 -393 -144q-184 0 -316 110t-132 294z M313 375q0 -72 58.5 -118t134.5 -46q104 0 242 108l-201 326q-10 -6 -42 -24.5t-43 -25.5t-38 -24.5t-38 -29t-28.5 -32t-24.5 -38.5t-13.5 -42.5t-6.5 -53.5zM590 1135q0 -78 78 -205q209 102 209 215q0 61 -37 100t-92 39q-66 0 -112 -38.5t-46 -110.5z" />
<glyph unicode="'" horiz-adv-x="569" d="M225 805v657h219v-657h-219z" />
<glyph unicode="(" horiz-adv-x="606" d="M53 283q0 356 117 626.5t367 587.5h256q-260 -342 -364.5 -649t-104.5 -682q0 -205 77 -539h-221q-53 123 -90 322t-37 334z" />
<glyph unicode=")" horiz-adv-x="606" d="M-229 -373q260 342 364.5 649.5t104.5 681.5q0 205 -78 539h221q53 -123 90 -321.5t37 -333.5q0 -356 -117 -626.5t-366 -588.5h-256z" />
<glyph unicode="*" horiz-adv-x="833" d="M145 1180l70 149l223 -112l35 245l168 -8l-49 -262l248 47l28 -162l-245 -37l116 -215l-147 -80l-113 224l-176 -199l-119 115l183 188z" />
<glyph unicode="+" horiz-adv-x="1228" d="M98 408v219h408v407h219v-407h408v-219h-408v-408h-219v408h-408z" />
<glyph unicode="," horiz-adv-x="569" d="M-98 -342l30 145q86 14 125 59.5t58 137.5h-142l66 315h323q-12 -51 -31.5 -148t-31.5 -152.5t-43 -131.5t-72 -116.5t-113.5 -72.5t-168.5 -36z" />
<glyph unicode="-" horiz-adv-x="833" d="M55 434l54 250h616l-53 -250h-617z" />
<glyph unicode="." horiz-adv-x="569" d="M-27 0l68 315h324l-68 -315h-324z" />
<glyph unicode="/" horiz-adv-x="796" d="M-4 -35l571 1532h234l-572 -1532h-233z" />
<glyph unicode="0" d="M-8 522q0 158 43 318.5t123 302t214 230.5t298 89q236 0 357.5 -146.5t121.5 -395.5q0 -129 -26.5 -259.5t-83 -255t-137.5 -221t-198.5 -155t-257.5 -58.5q-231 0 -342.5 155.5t-111.5 395.5zM283 463q0 -252 200 -252q84 0 151.5 60.5t107.5 148.5t68 195.5t38 195.5 t10 154q0 115 -51 186.5t-158 71.5q-100 0 -177 -88t-116 -219.5t-56 -247t-17 -205.5z" />
<glyph unicode="1" d="M199 930l47 219q178 8 292.5 68.5t188.5 216.5h238l-303 -1434h-310l197 930h-350z" />
<glyph unicode="2" d="M-86 0q6 86 29.5 161t70.5 136t90 106.5t121 95.5t126 77.5t141 76.5q18 10 73.5 40t83 46.5t73.5 50t69.5 62.5t42 72t18.5 88q0 102 -61.5 151t-159.5 49q-115 0 -187.5 -86t-76.5 -208h-277q20 258 174 401t402 143q209 0 343 -109.5t134 -322.5q0 -119 -61.5 -218 t-163 -172t-206 -132t-216 -128t-168.5 -130h706l-57 -250h-1063z" />
<glyph unicode="3" d="M-37 492h277q-14 -129 47 -205t186 -76q121 0 199 69.5t78 190.5q0 90 -55.5 134t-147.5 44h-105l39 205h88q111 -2 193 43t82 147q0 88 -56.5 133.5t-140.5 45.5q-119 0 -183.5 -60.5t-90.5 -185.5h-277q33 233 179.5 359t375.5 126q197 0 335 -91t138 -284 q0 -125 -75.5 -215t-194.5 -114v-4q201 -61 201 -293q0 -162 -83 -275.5t-213 -164t-294 -50.5q-260 0 -389 133.5t-113 387.5z" />
<glyph unicode="4" d="M-74 332l54 264l839 838h283l-182 -863h190l-51 -239h-191l-71 -332h-277l72 332h-666zM217 571h426l117 551h-4z" />
<glyph unicode="5" d="M-35 418h281q2 -102 68.5 -154.5t174.5 -52.5q121 0 204 85t83 216q0 119 -63.5 181.5t-180.5 62.5q-147 0 -229 -121h-262l250 799h848l-52 -240h-610l-94 -305l4 -4q53 45 114.5 67.5t166.5 22.5q166 0 282.5 -118t116.5 -310q0 -262 -168 -419t-430 -157 q-233 0 -364.5 111t-139.5 336z" />
<glyph unicode="6" d="M27 555q0 389 190.5 648t511.5 259q199 0 322 -99t131 -300h-281q-2 82 -52 131t-130 49t-143.5 -38t-107.5 -110.5t-69.5 -132t-54.5 -147.5l4 -4q104 152 316 152q193 0 308 -119t115 -320q0 -231 -159.5 -392t-392.5 -161q-260 0 -384 158t-124 426zM307 453 q0 -104 62.5 -173t156.5 -69q123 0 197 82t74 209q0 117 -61.5 179t-166.5 62q-117 0 -189.5 -84.5t-72.5 -205.5z" />
<glyph unicode="7" d="M135 1163l58 271h1017l-53 -250q-238 -199 -431.5 -530.5t-276.5 -653.5h-310q76 297 274.5 626.5t426.5 536.5h-705z" />
<glyph unicode="8" d="M-41 393q0 295 358 379v4q-78 37 -128 108.5t-50 157.5q0 193 153.5 306.5t387.5 113.5q201 0 323.5 -110.5t122.5 -274.5q0 -106 -78.5 -200.5t-197.5 -118.5v-4q90 -18 156.5 -115.5t66.5 -206.5q0 -209 -173 -335t-408 -126q-231 0 -382 119t-151 303zM250 412 q0 -98 74.5 -160t177.5 -62q129 0 204.5 66t75.5 176q0 109 -76.5 169.5t-177.5 60.5q-121 0 -199.5 -65.5t-78.5 -184.5zM399 1042.5q0 -94.5 73 -140.5t161 -46q94 0 163.5 53.5t69.5 139.5q0 96 -65.5 145t-161.5 49q-113 0 -176.5 -53t-63.5 -147.5z" />
<glyph unicode="9" d="M-25 371h281q2 -82 52 -131.5t130 -49.5t143.5 38t107.5 111t69.5 132t54.5 147l-4 5q-104 -152 -315 -152q-193 0 -308.5 119t-115.5 319q0 231 159.5 392t393.5 161q260 0 383.5 -157.5t123.5 -425.5q0 -389 -190 -648.5t-512 -259.5q-199 0 -322 99.5t-131 300.5z M360 932q0 -117 61.5 -179.5t166.5 -62.5q117 0 189.5 85t72.5 206q0 104 -62.5 173t-156.5 69q-123 0 -197 -82t-74 -209z" />
<glyph unicode=":" horiz-adv-x="569" d="M-27 0l68 315h324l-68 -315h-324zM125 725l68 315h323l-67 -315h-324z" />
<glyph unicode=";" horiz-adv-x="569" d="M-98 -342l30 145q86 14 125 59.5t58 137.5h-142l66 315h323q-12 -51 -31.5 -148t-31.5 -152.5t-43 -131.5t-72 -116.5t-113.5 -72.5t-168.5 -36zM125 725l68 315h323l-67 -315h-324z" />
<glyph unicode="&#x3c;" horiz-adv-x="1228" d="M94 397v242l1041 414v-236l-752 -299l752 -299v-235z" />
<glyph unicode="=" horiz-adv-x="1228" d="M98 188v220h1035v-220h-1035zM98 627v219h1035v-219h-1035z" />
<glyph unicode="&#x3e;" horiz-adv-x="1228" d="M94 -16v235l752 299l-752 299v236l1041 -414v-242z" />
<glyph unicode="?" horiz-adv-x="1175" d="M152 1006q12 236 169.5 363.5t399.5 127.5q190 0 318 -96t128 -283q0 -133 -75.5 -223t-208.5 -166q-111 -59 -166 -117.5t-68 -160.5h-270q27 186 98.5 270t239.5 172q145 82 145 205q0 78 -50 118.5t-128 40.5q-102 0 -165.5 -71.5t-76.5 -179.5h-290zM252 0l67 315 h324l-68 -315h-323z" />
<glyph unicode="@" horiz-adv-x="1638" d="M74 731q0 322 228 544t550 222q291 0 502 -175t211 -450q0 -121 -38 -223t-94.5 -168.5t-124 -114t-125 -67.5t-100.5 -20q-63 0 -104 32.5t-45 83.5h-4q-72 -119 -221 -119q-131 0 -226.5 103.5t-95.5 247.5q0 205 126 363.5t321 158.5q74 0 140 -35t99 -108l33 110h168 l-129 -528q-41 -135 18 -135q88 0 163 109.5t75 266.5q0 236 -155.5 370t-395.5 134q-260 0 -420 -171t-160 -435q0 -266 169 -432t435 -166q272 0 441 168h172q-104 -158 -268 -245t-357 -87q-330 0 -559 220t-229 546zM596 653q0 -82 44 -132t116 -50q104 0 178 98.5 t74 210.5q0 74 -46.5 124t-111.5 50q-104 0 -179 -96t-75 -205z" />
<glyph unicode="A" horiz-adv-x="1402" d="M-158 0l865 1462h329l244 -1462h-319l-48 326h-546l-185 -326h-340zM494 565h391l-72 582h-4z" />
<glyph unicode="B" horiz-adv-x="1478" d="M-8 0l307 1462h614q240 0 358 -72.5t118 -269.5q0 -129 -75 -227t-200 -113v-4q102 -27 159.5 -107.5t57.5 -189.5q0 -227 -162.5 -353t-396.5 -126h-780zM354 250h404q113 0 182.5 61.5t69.5 173.5q0 55 -21.5 90t-63.5 50.5t-79 20.5t-90 5h-316zM485 870h365 q92 0 154.5 50.5t62.5 142.5q0 150 -170 149h-340z" />
<glyph unicode="C" horiz-adv-x="1517" d="M76 612q0 238 95 438.5t279.5 323.5t423.5 123q264 0 429 -142q158 -137 157 -382v-19h-321q0 131 -72 202t-190 71q-156 0 -268.5 -97.5t-162 -232.5t-49.5 -285q0 -164 83 -270t249 -106q129 0 225.5 86t118.5 204h322q-96 -297 -260 -429t-410 -132q-307 0 -478 170 t-171 477z" />
<glyph unicode="D" horiz-adv-x="1517" d="M-8 0l309 1462h528q303 0 462 -148.5t159 -420.5q0 -397 -219 -645t-627 -248h-612zM371 270h247q238 0 374 163t136 405q0 354 -319 354h-242z" />
<glyph unicode="E" horiz-adv-x="1366" d="M-8 0l307 1462h1116l-55 -270h-795l-65 -313h735l-53 -250h-736l-75 -359h807l-58 -270h-1128z" />
<glyph unicode="F" horiz-adv-x="1214" d="M-8 0l309 1462h1040l-59 -270h-717l-71 -338h626l-53 -250h-625l-129 -604h-321z" />
<glyph unicode="G" horiz-adv-x="1554" d="M76 612q0 238 95 438.5t279.5 323.5t423.5 123q272 0 446.5 -131t174.5 -387h-321q-12 248 -297 248q-156 0 -268.5 -97.5t-162 -232.5t-49.5 -285q0 -164 83 -270t249 -106q172 0 266.5 81.5t139.5 233.5h-338l51 240h620l-168 -791h-202v150h-4q-135 -184 -369 -185 q-307 0 -478 170t-171 477z" />
<glyph unicode="H" horiz-adv-x="1517" d="M-8 0l309 1462h324l-119 -561h592l119 561h323l-309 -1462h-324l133 631h-591l-134 -631h-323z" />
<glyph unicode="I" horiz-adv-x="606" d="M-8 0l309 1462h324l-310 -1462h-323z" />
<glyph unicode="J" d="M-39 319q0 61 27 226h293q-29 -127 -29 -172q0 -63 46 -100t112 -37q41 0 71.5 7t53 29.5t36 37t26.5 54t17 55t17 66.5l203 977h323l-217 -1046q-51 -223 -178 -337t-356 -114q-190 0 -317.5 87t-127.5 267z" />
<glyph unicode="K" horiz-adv-x="1478" d="M-8 0l305 1462h321l-126 -612h4l663 612h426l-702 -602l448 -860h-362l-334 657l-223 -194l-97 -463h-323z" />
<glyph unicode="L" horiz-adv-x="1175" d="M-8 0l307 1462h324l-250 -1192h706l-57 -270h-1030z" />
<glyph unicode="M" horiz-adv-x="1857" d="M-8 0l309 1462h444l113 -1059h4l563 1059h449l-309 -1462h-301l266 1163h-4l-619 -1163h-245l-142 1163h-4l-219 -1163h-305z" />
<glyph unicode="N" horiz-adv-x="1517" d="M-8 0l309 1462h332l397 -1040h4l209 1040h295l-309 -1462h-322l-401 1026h-4l-209 -1026h-301z" />
<glyph unicode="O" horiz-adv-x="1593" d="M76 612q0 238 95 438.5t279.5 323.5t423.5 123q301 0 475.5 -161.5t174.5 -465.5q0 -246 -91.5 -448.5t-275.5 -329.5t-432 -127q-307 0 -478 170t-171 477zM397 612q0 -164 83 -270t249 -106q150 0 261.5 97t161.5 233t50 282q0 168 -80 273.5t-245 105.5 q-156 0 -268.5 -97.5t-162 -232.5t-49.5 -285z" />
<glyph unicode="P" horiz-adv-x="1366" d="M-8 0l305 1462h586q240 -2 374 -99t134 -327q0 -233 -166 -372.5t-404 -139.5h-397l-111 -524h-321zM477 774h328q125 0 194.5 64.5t69.5 191.5q0 182 -227 182h-275z" />
<glyph unicode="Q" horiz-adv-x="1593" d="M76 612q0 238 95 438.5t279.5 323.5t423.5 123q301 0 475.5 -161.5t174.5 -465.5q0 -213 -73 -399t-210 -313l156 -176l-172 -144l-172 197q-150 -70 -328 -70q-307 0 -478 170t-171 477zM397 612q0 -164 83 -270t249 -106q66 0 127 22l-115 129l172 141l129 -145 q78 88 119 214t41 251q0 168 -80 273.5t-245 105.5q-156 0 -268.5 -97.5t-162 -232.5t-49.5 -285z" />
<glyph unicode="R" horiz-adv-x="1478" d="M-8 0l307 1462h698h14q423 0 423 -383q0 -150 -94.5 -261t-241.5 -132v-4q152 -47 151 -258q0 -31 -5 -119t-5 -135q0 -117 21 -170h-314q-14 61 -14 98q0 49 8 148.5t8 148.5q0 100 -53 138t-158 38h-303l-121 -571h-321zM483 801h297q141 2 236.5 59.5t95.5 171.5 q0 109 -62.5 144.5t-175.5 35.5h-305z" />
<glyph unicode="S" horiz-adv-x="1327" d="M10 485h305q-1 -13 0 -24q0 -126 78 -183q86 -62 238 -63q111 0 194.5 53.5t83.5 153.5q0 31 -10 55.5t-32.5 44t-44 32.5t-62.5 27.5t-67.5 22.5t-77 22.5t-76.5 22.5q-82 25 -138.5 51.5t-114 70.5t-87 112.5t-29.5 158.5q0 117 50 207t134 143.5t184.5 79t211.5 25.5 q244 0 396 -115.5t152 -355.5h-305q0 6 1 12q0 105 -68 156q-72 53 -195 53q-104 0 -180 -44t-76 -138q0 -31 13.5 -56.5t40 -45t51 -34t65.5 -26.5t64.5 -18t64.5 -15.5t49 -11.5q195 -51 293 -139t98 -270q0 -125 -53 -222.5t-141 -152t-189.5 -82t-212.5 -27.5 q-608 0 -608 520z" />
<glyph unicode="T" horiz-adv-x="1251" d="M111 1192l57 270h1221l-58 -270h-438l-250 -1192h-324l250 1192h-458z" />
<glyph unicode="U" horiz-adv-x="1517" d="M78 399q0 63 31 217l178 846h321l-178 -846q-31 -141 -31 -184q0 -74 63.5 -135t211.5 -61q78 0 134 17t92 44t61.5 78t40 98t30.5 123l182 866h322l-178 -850q-70 -336 -224.5 -491.5t-480.5 -155.5q-154 0 -277.5 40t-210.5 141t-87 253z" />
<glyph unicode="V" horiz-adv-x="1290" d="M147 1462h322l96 -1097h4l555 1097h334l-780 -1462h-363z" />
<glyph unicode="W" horiz-adv-x="1933" d="M150 1462h321l21 -1071h4l462 1071h308l37 -1067h4l446 1067h322l-686 -1462h-320l-37 1044h-4l-455 -1044h-323z" />
<glyph unicode="X" horiz-adv-x="1366" d="M-143 0l665 770l-342 692h350l207 -483l375 483h381l-608 -706l362 -756h-354l-229 522l-418 -522h-389z" />
<glyph unicode="Y" horiz-adv-x="1327" d="M125 1462h330l219 -622l454 622h379l-712 -909l-113 -553h-324l117 567z" />
<glyph unicode="Z" horiz-adv-x="1327" d="M-88 0l55 266l977 926h-749l59 270h1155l-53 -258l-985 -934h825l-53 -270h-1231z" />
<glyph unicode="[" horiz-adv-x="681" d="M-76 -373l393 1870h529l-49 -229h-256l-297 -1411h258l-49 -230h-529z" />
<glyph unicode="\" horiz-adv-x="796" d="M-4 1497h233l572 -1532h-234z" />
<glyph unicode="]" horiz-adv-x="681" d="M-229 -373l49 230h256l297 1411h-258l49 229h528l-393 -1870h-528z" />
<glyph unicode="^" horiz-adv-x="1228" d="M125 645l352 789h275l352 -789h-240l-250 563l-249 -563h-240z" />
<glyph unicode="_" horiz-adv-x="1024" d="M0 -154h1024v-102h-1024v102z" />
<glyph unicode="`" horiz-adv-x="530" d="M49 1481h311l181 -291h-205z" />
<glyph unicode="a" horiz-adv-x="1175" d="M-14 250q0 150 107.5 244t297.5 116q45 6 107.5 12.5t93.5 9.5t72 10t59 15.5t37.5 22.5t27 34.5t7.5 49.5q0 70 -56.5 99.5t-128.5 29.5q-82 0 -142 -40t-73 -116h-272q27 186 164 268t338 82q82 0 150.5 -11t139 -38.5t111.5 -86.5q39 -56 39 -134q0 -65 -23 -186 l-94 -426q-14 -51 -14 -144q0 -31 10 -61h-291v104q-119 -133 -323 -133q-166 0 -255 80t-89 199zM276 285q0 -57 46.5 -88t113.5 -31q121 0 181.5 65.5t91.5 174.5l28 102q-66 -39 -245 -51q-102 -12 -159 -47t-57 -125z" />
<glyph unicode="b" horiz-adv-x="1251" d="M-25 0l308 1462h290l-108 -516h4q70 76 140.5 108.5t172.5 32.5q190 0 285.5 -125.5t95.5 -324.5q0 -170 -60.5 -318.5t-188.5 -248t-300 -99.5q-264 0 -331 195h-4l-35 -166h-269zM350 414q0 -98 56.5 -161t154.5 -63q102 0 176 75t104.5 171t30.5 197q0 106 -50 170.5 t-156.5 64.5t-181 -76.5t-104.5 -175t-30 -202.5z" />
<glyph unicode="c" d="M20 426q0 281 161 471t437 190q207 0 339.5 -97t136.5 -298h-291q0 176 -195 176q-78 0 -138 -44t-93 -113.5t-49.5 -143t-16.5 -147.5q0 -104 48.5 -167t152.5 -63q90 0 149.5 55.5t86.5 141.5h290q-139 -416 -546 -416q-225 0 -348.5 114t-123.5 341z" />
<glyph unicode="d" horiz-adv-x="1251" d="M20 389q0 133 36 256t105.5 223.5t182.5 159.5t254 59q98 0 181 -43t116 -126h4l117 544h291l-310 -1462h-280l28 131l-4 4q-94 -164 -317 -164q-188 0 -296 112.5t-108 305.5zM311 426q0 -100 54.5 -168t152.5 -68q102 0 178 76t109 175.5t33 197.5q0 104 -53.5 166.5 t-156 62.5t-178 -73.5t-107.5 -171t-32 -197.5z" />
<glyph unicode="e" horiz-adv-x="1175" d="M20 434q0 266 162 459.5t422 193.5q227 0 360.5 -118.5t133.5 -343.5q0 -84 -17 -166h-780q-2 -27 -2 -62q0 -96 59.5 -151.5t173.5 -55.5q55 0 99.5 25t68 51.5t50.5 69.5h290q-72 -184 -199.5 -274.5t-348.5 -90.5q-217 0 -344.5 121t-127.5 342zM332 643h485 q0 225 -196 225q-207 0 -289 -225z" />
<glyph unicode="f" horiz-adv-x="720" d="M35 0l182 864h-172l41 195h174q25 119 46.5 182.5t65.5 123.5t115.5 85t184.5 25q88 0 190 -17l-45 -209q-92 6 -94 6q-31 0 -53.5 -3t-39 -15t-25.5 -19.5t-18 -32t-12.5 -33.5t-11.5 -45t-12 -48h207l-41 -195h-209l-182 -864h-291z" />
<glyph unicode="g" horiz-adv-x="1251" d="M-39 -55h291q-2 -74 54 -113t136 -39q66 0 114 25.5t82 84t53.5 112t45.5 147.5l-4 4q-113 -150 -291 -150q-188 0 -297.5 118t-109.5 315q0 160 60.5 303t186.5 239t287 96q242 0 324 -190h4l33 162h278l-211 -1004q-53 -244 -188 -350t-395 -106q-117 0 -214.5 31.5 t-168 112.5t-70.5 202zM326 469q0 -100 50 -166.5t146 -66.5q145 0 227 124.5t82 278.5q0 104 -53 166.5t-155 62.5q-135 0 -216 -127t-81 -272z" />
<glyph unicode="h" horiz-adv-x="1251" d="M-25 0l306 1462h290l-108 -526h4q43 59 132 105t218 46q150 0 229.5 -72.5t79.5 -211.5q0 -45 -30 -182l-131 -621h-291l129 621q18 70 18 129q0 45 -43 76.5t-96 31.5q-123 0 -196.5 -85t-100.5 -210l-119 -563h-291z" />
<glyph unicode="i" horiz-adv-x="530" d="M-25 0l226 1059h293l-226 -1059h-293zM233 1223l54 239h293l-54 -239h-293z" />
<glyph unicode="j" horiz-adv-x="530" d="M-270 -362l49 233q70 -4 104 -4q18 0 33.5 11t26 24.5t19.5 39t13.5 40t10.5 43t8 32.5l211 1002h291l-232 -1098q-39 -178 -122 -256t-271 -78q-27 0 -75 5.5t-66 5.5zM233 1223l54 239h293l-54 -239h-293z" />
<glyph unicode="k" d="M-25 0l308 1462h290l-167 -794l4 -4l417 395h359l-475 -402l272 -657h-319l-175 473l-151 -129l-72 -344h-291z" />
<glyph unicode="l" horiz-adv-x="530" d="M-25 0l312 1462h291l-312 -1462h-291z" />
<glyph unicode="m" horiz-adv-x="1857" d="M-25 0l222 1059h278l-33 -150h4q131 178 371 178q100 0 169 -46t87 -138q53 80 154.5 132t204.5 52q135 0 228 -69.5t93 -198.5q0 -37 -31 -196l-131 -623h-291l140 670q8 61 8 75q0 47 -36 80t-91 33q-106 0 -177 -88t-95 -203l-119 -567h-293l139 670q8 61 8 75 q0 47 -35.5 80t-91.5 33q-106 0 -176.5 -88t-95.5 -203l-119 -567h-291z" />
<glyph unicode="n" horiz-adv-x="1251" d="M-25 0l222 1059h278l-33 -148h4q141 176 371 176q150 0 229.5 -72.5t79.5 -211.5q0 -45 -30 -182l-131 -621h-291l129 621q18 70 18 129q0 45 -43 76.5t-96 31.5q-123 0 -196.5 -85t-100.5 -210l-119 -563h-291z" />
<glyph unicode="o" horiz-adv-x="1214" d="M20 428q0 279 167 469t442 190q227 0 360 -113.5t133 -334.5q0 -287 -167 -477.5t-449 -190.5q-225 0 -355.5 117t-130.5 340zM311 428q0 -100 55.5 -169t153.5 -69q102 0 176 76t104.5 174.5t30.5 194.5q0 233 -213 233q-145 0 -226 -141t-81 -299z" />
<glyph unicode="p" horiz-adv-x="1251" d="M-121 -373l305 1432h281l-29 -131l4 -4q94 164 318 163q188 0 294.5 -112.5t106.5 -304.5q0 -133 -36 -256t-104.5 -223.5t-181 -160t-253.5 -59.5q-98 0 -181.5 43t-115.5 127h-6l-111 -514h-291zM342 420q0 -104 53.5 -167t155.5 -63t178 74t107.5 171t31.5 197.5 t-54 168t-152 67.5q-102 0 -178 -75.5t-109 -175t-33 -197.5z" />
<glyph unicode="q" horiz-adv-x="1251" d="M20 422q0 170 60.5 318.5t188.5 247.5t300 99q264 0 332 -194h4l35 166h268l-301 -1432h-291l97 457h-4q-106 -113 -299 -113q-195 0 -292.5 126t-97.5 325zM311 426q0 -236 215 -236q143 0 229.5 146.5t86.5 308.5q0 98 -56.5 160.5t-154.5 62.5q-106 0 -182 -74.5 t-107 -171t-31 -196.5z" />
<glyph unicode="r" horiz-adv-x="796" d="M-25 0l222 1059h276l-43 -191l4 -4q47 106 146.5 164.5t218.5 58.5q45 0 90 -6l-60 -282q-92 18 -122 18q-154 0 -231 -94t-111 -254l-99 -469h-291z" />
<glyph unicode="s" horiz-adv-x="1062" d="M-18 301v43h270v-35q0 -68 63.5 -105.5t145.5 -37.5q76 0 130 30.5t54 96.5q0 51 -25.5 74.5t-78.5 42.5l-224 71q-119 39 -174 96.5t-55 174t77 196.5t178 109.5t214 29.5q199 0 317.5 -74.5t116.5 -262.5h-270q-4 143 -164 143q-178 0 -178 -105q0 -35 29.5 -59 t103.5 -47l145 -47q133 -43 206 -111.5t73 -191.5q0 -125 -78 -209t-186.5 -118t-239.5 -34q-113 0 -210 29t-168.5 106.5t-71.5 194.5z" />
<glyph unicode="t" horiz-adv-x="757" d="M47 864l45 195h187l65 321h291l-66 -321h209l-45 -195h-207l-108 -526q-8 -45 -8 -49q0 -35 17 -53.5t34.5 -21.5t46.5 -3q53 0 104 6l-49 -225q-98 -10 -182 -10q-121 0 -200 49q-77 48 -77 160q0 43 15 106l119 567h-191z" />
<glyph unicode="u" horiz-adv-x="1251" d="M49 256q0 43 31 182l131 621h291l-129 -621q-18 -70 -19 -129q0 -45 43 -76.5t97 -31.5q123 0 196.5 85t100.5 210l118 563h291l-221 -1059h-279l33 147h-4q-141 -176 -371 -176q-150 0 -229.5 73t-79.5 212z" />
<glyph unicode="v" horiz-adv-x="1062" d="M61 1059h299l66 -754h4l375 754h307l-580 -1059h-331z" />
<glyph unicode="w" horiz-adv-x="1669" d="M61 1059h297l41 -746h4l326 746h295l33 -740h4l340 740h307l-553 -1059h-303l-37 743h-4l-328 -743h-305z" />
<glyph unicode="x" horiz-adv-x="1062" d="M-158 0l492 567l-240 492h312l116 -305l240 305h325l-440 -508l268 -551h-307l-153 348l-283 -348h-330z" />
<glyph unicode="y" horiz-adv-x="1062" d="M-129 -362l49 241q18 0 59 -6t60 -6q47 0 83 16.5t49 31.5t33.5 51t26.5 44l-188 1049h299l92 -758h4l367 758h307l-674 -1209q-74 -133 -158.5 -178t-252.5 -45q-29 0 -82.5 5.5t-73.5 5.5z" />
<glyph unicode="z" horiz-adv-x="1024" d="M-104 0l45 215l663 625h-510l47 219h889l-45 -215l-666 -625h584l-47 -219h-960z" />
<glyph unicode="{" horiz-adv-x="681" d="M-72 473l37 178q63 0 136 46t92 139l79 385q27 127 126.5 201.5t183.5 74.5h260l-47 -229h-111q-115 0 -141 -150l-66 -311q-43 -215 -254 -242v-6q57 -6 109.5 -44t52.5 -118q0 -29 -6 -63l-68 -328q-8 -33 -8 -78q0 -72 86 -71h111l-47 -230h-260q-72 0 -136.5 58.5 t-64.5 160.5q0 27 6 58l84 399q4 25 4 33q0 68 -51.5 102.5t-106.5 34.5z" />
<glyph unicode="|" horiz-adv-x="454" d="M119 -438v2048h219v-2048h-219z" />
<glyph unicode="}" horiz-adv-x="681" d="M-225 -373l47 230h110q115 0 142 149l65 311q43 215 254 242v6q-57 6 -109.5 44t-52.5 118q0 31 7 64l67 327q8 33 8 78q0 72 -86 72h-110l47 229h260q72 0 136.5 -58.5t64.5 -160.5q0 -27 -7 -57l-83 -400q-4 -25 -5 -33q0 -68 51.5 -102.5t106.5 -34.5l-37 -178 q-63 0 -136 -46t-91 -138l-80 -385q-27 -127 -126 -202t-183 -75h-260z" />
<glyph unicode="~" horiz-adv-x="1228" d="M137 520q92 176 256 176q80 0 228 -65q14 -6 43.5 -19.5t47 -20.5t41 -16.5t42 -13.5t34.5 -4q39 0 75 24.5t55.5 50t50.5 73.5l82 -191q-41 -55 -68 -86t-78 -60.5t-110 -29.5q-86 0 -209 68q-127 72 -236 71q-104 0 -172 -147z" />
<glyph unicode="&#xa1;" horiz-adv-x="606" d="M-76 -375l86 398l215 626h144l-52 -626l-84 -398h-309zM160 772l67 315h324l-68 -315h-323z" />
<glyph unicode="&#xa2;" d="M23 426q0 281 160.5 471t437.5 190h8l37 177h100l-39 -185q166 -23 265.5 -119t103.5 -268h-291q0 143 -123 168l-139 -670q150 18 207 197h290q-61 -213 -191 -314.5t-349 -101.5h-4l-45 -211h-101l45 220q-372 49 -372 446zM313 420q0 -180 129 -217l140 665 q-92 -10 -157 -88t-88.5 -171t-23.5 -189z" />
<glyph unicode="&#xa3;" d="M-23 164q55 41 76 56.5t66 57t63.5 70.5t36 75t17.5 93q0 43 -9 121h-198l37 174h131q-45 119 -45 227q0 213 157.5 336t378.5 123q236 0 361 -133t114 -389h-280q10 283 -195 282q-106 0 -168.5 -65.5t-62.5 -173.5q0 -113 37 -207h288l-34 -174h-234q2 -18 2 -57 q0 -115 -48 -196t-146 -151l4 -4q74 33 170 33q47 0 140 -23.5t144 -23.5q100 0 197 74l84 -219q-162 -104 -340 -105q-61 0 -203.5 39t-212.5 39q-115 0 -242 -78z" />
<glyph unicode="&#xa4;" d="M41 305l117 119q-98 115 -99 291q0 197 99 295l-117 118l117 117l116 -115q111 94 299 95q178 0 281 -92l119 116l125 -125l-115 -112q92 -102 92 -293q0 -182 -94 -299l113 -115l-113 -112l-117 118q-106 -102 -293 -102q-190 0 -301 100l-114 -119zM319 715 q0 -119 68 -203t184 -84q115 0 179.5 86t64.5 205q0 117 -64.5 202t-177.5 85q-119 0 -186.5 -85t-67.5 -206z" />
<glyph unicode="&#xa5;" d="M8 283l41 194h318l18 92l-16 62h-289l41 194h192l-180 637h338l121 -637h4l387 637h338l-444 -637h190l-41 -194h-285l-43 -62l-24 -92h321l-41 -194h-317l-59 -283h-312l60 283h-318z" />
<glyph unicode="&#xa6;" horiz-adv-x="454" d="M119 -182v512h219v-512h-219zM119 842v512h219v-512h-219z" />
<glyph unicode="&#xa7;" horiz-adv-x="1214" d="M16 35h260q-6 -78 41.5 -133.5t128.5 -55.5q182 0 183 144q0 55 -56.5 113.5t-121.5 99.5l-207 149q-184 123 -185 303q0 127 82 216.5t211 105.5q-39 51 -52 85t-13 87q0 162 142 255t314 93q193 -4 310.5 -103.5t95.5 -285.5h-260q4 76 -36 123t-118 47 q-70 0 -113.5 -37t-43.5 -102q0 -86 159 -191l189 -135q94 -72 147 -146.5t53 -172.5q0 -127 -80.5 -211t-187.5 -111q61 -68 62 -178q0 -170 -138.5 -268.5t-326.5 -98.5q-199 0 -323 106.5t-116 301.5zM319 698q0 -23 5.5 -41t11.5 -31.5t20.5 -28.5t21.5 -22.5t28.5 -26 t29.5 -24.5l148 -121q6 -4 28.5 -25.5t36 -31.5t36 -20.5t40.5 -10.5q57 0 99 37t42 94q0 27 -6 50.5t-27.5 48t-29.5 34t-44 38t-38 30.5l-129 109q-12 10 -30.5 26.5t-25 21.5t-20.5 12t-28.5 9t-36.5 2q-49 0 -90.5 -39t-41.5 -90z" />
<glyph unicode="&#xa8;" horiz-adv-x="530" d="M35 1223l49 239h268l-49 -239h-268zM436 1223l49 239h269l-49 -239h-269z" />
<glyph unicode="&#xa9;" horiz-adv-x="1638" d="M33 731q0 225 110.5 403.5t288.5 270.5t387 92t387 -92t289 -270.5t111 -403.5q0 -338 -231.5 -552t-555 -214t-555 214t-231.5 552zM242 731q0 -258 166.5 -430t410.5 -172q242 0 410 172t168 430q0 260 -168 431t-410 171q-244 0 -410.5 -171t-166.5 -431zM408 735 q0 203 117.5 331t318.5 128q145 0 247.5 -83t122.5 -234h-159q-14 72 -72.5 112.5t-138.5 40.5q-115 0 -177.5 -81t-62.5 -210q0 -123 67.5 -209t176.5 -86q84 0 141.5 43t65.5 117h166q-25 -150 -128.5 -236.5t-244.5 -86.5q-197 0 -318.5 129.5t-121.5 324.5z" />
<glyph unicode="&#xaa;" horiz-adv-x="704" d="M59 936q0 213 265 244q23 2 75 6t75.5 8t55 11t44 20.5t12.5 31.5q0 39 -35 55.5t-72 16.5q-49 0 -88 -21.5t-47 -60.5h-194q16 117 120 172q84 43 217 43q61 0 109.5 -7t97.5 -24.5t75 -54.5t26 -92q0 -39 -15 -106l-61 -256q-10 -37 -10 -86q0 -4 8 -50h-217v64 q-33 -37 -94 -62q-49 -20 -109 -20q-117 0 -177.5 48t-60.5 120zM268 969q0 -31 29 -49.5t68 -18.5q133 0 178 141l16 56q-49 -23 -158 -31q-63 -8 -98 -27.5t-35 -70.5z" />
<glyph unicode="&#xab;" horiz-adv-x="948" d="M43 446l57 267l371 235l-53 -252l-225 -139l157 -174l-45 -219zM444 446l58 267l370 235l-53 -252l-225 -139l158 -174l-45 -219z" />
<glyph unicode="&#xac;" horiz-adv-x="1228" d="M98 612v219h1032v-628h-219v409h-813z" />
<glyph unicode="&#xad;" horiz-adv-x="833" d="M55 434l54 250h616l-53 -250h-617z" />
<glyph unicode="&#xae;" horiz-adv-x="1638" d="M33 733q0 338 231.5 551t555 213t555 -213t231.5 -551q0 -340 -231.5 -554t-555 -214t-555 214t-231.5 554zM242 733q0 -260 166.5 -432t410.5 -172q242 0 410 172t168 432q0 258 -168 429t-410 171q-244 0 -410.5 -171t-166.5 -429zM514 305v858h324q168 0 252 -59.5 t84 -194.5q0 -211 -226 -229l230 -375h-179l-208 367h-103v-367h-174zM688 805h148q80 0 121.5 23.5t41.5 95.5q0 106 -172 106h-139v-225z" />
<glyph unicode="&#xaf;" horiz-adv-x="530" d="M72 1262l28 153h625l-29 -153h-624z" />
<glyph unicode="&#xb0;" horiz-adv-x="819" d="M168 1159q0 127 88 215t215 88t215 -88t88 -215t-88 -215t-215 -88t-215 88t-88 215zM301 1159q0 -74 51 -127t119 -53t119 53t51 127t-51 127t-119 53t-119 -53t-51 -127z" />
<glyph unicode="&#xb1;" horiz-adv-x="1228" d="M98 0v219h1035v-219h-1035zM98 549v219h408v268h219v-268h408v-219h-408v-268h-219v268h-408z" />
<glyph unicode="&#xb2;" horiz-adv-x="802" d="M33 559q6 82 33.5 145.5t82 111.5t104.5 79t132 70q125 59 190.5 109t65.5 106q0 59 -39 88.5t-100 29.5q-70 0 -115 -51t-49 -123h-209q14 164 116.5 251t278.5 87q147 0 236.5 -66.5t89.5 -203.5q0 -86 -55.5 -150.5t-155.5 -126.5q-37 -23 -110.5 -60.5t-125 -68 t-84.5 -63.5h445l-37 -164h-694z" />
<glyph unicode="&#xb3;" horiz-adv-x="802" d="M47 827v39h197v-30q0 -59 40 -95t107 -36q76 0 126 39.5t50 109.5q0 45 -35.5 70.5t-91.5 25.5h-69l26 144h58q68 -2 122 23.5t54 80.5q0 49 -37 74.5t-90 25.5q-139 0 -174 -141h-197q20 150 117.5 227.5t257.5 77.5q137 0 228 -56t91 -181q0 -76 -49 -129.5t-127 -69.5 v-4q135 -35 135 -174q0 -156 -110.5 -231.5t-288.5 -75.5q-340 -1 -340 286z" />
<glyph unicode="&#xb4;" horiz-adv-x="530" d="M274 1190l181 291h311l-287 -291h-205z" />
<glyph unicode="&#xb5;" horiz-adv-x="1251" d="M-96 -373l307 1432h291l-129 -621q-18 -70 -19 -129q0 -45 43 -76.5t97 -31.5q123 0 196.5 85t100.5 210l118 563h291l-221 -1059h-279l33 147h-4q-141 -176 -371 -176q-43 0 -90 11l-73 -355h-291z" />
<glyph unicode="&#xb6;" horiz-adv-x="1228" d="M156 1085q80 377 565 377h577l-378 -1802h-197l346 1638h-227l-346 -1638h-197l225 1063q-205 0 -304 99t-64 263z" />
<glyph unicode="&#xb7;" horiz-adv-x="569" d="M88 588q0 72 51 123t123 51q70 0 121 -52.5t51 -121.5q0 -66 -51 -119t-119 -53q-72 0 -124 51t-52 121z" />
<glyph unicode="&#xb8;" horiz-adv-x="530" d="M25 -401l43 98q86 -37 172 -37q82 0 82 70q0 66 -82 65q-43 0 -82 -14l-43 49l121 174h100l-80 -113h4q20 10 70 11q76 0 132 -37t56 -107q0 -205 -239 -204q-123 0 -254 45z" />
<glyph unicode="&#xb9;" horiz-adv-x="802" d="M201 1120l35 154q109 6 180 42t121 128h174l-199 -885h-213l127 561h-225z" />
<glyph unicode="&#xba;" horiz-adv-x="729" d="M76 1053q0 176 110.5 292.5t298.5 116.5q158 0 246 -69.5t88 -212.5q0 -182 -110.5 -297t-302.5 -115q-158 0 -244 72t-86 213zM285 1053q0 -51 35.5 -91t93.5 -40q92 0 144 84t52 172q0 59 -33.5 95t-99.5 36q-90 0 -141 -83t-51 -173z" />
<glyph unicode="&#xbb;" horiz-adv-x="948" d="M12 164l54 252l225 139l-158 174l45 219l262 -282l-57 -267zM414 164l53 252l225 139l-157 174l45 219l262 -282l-58 -267z" />
<glyph unicode="&#xbc;" horiz-adv-x="1820" d="M240 1120l34 154q109 6 180.5 42t120.5 128h175l-199 -885h-213l127 561h-225zM418 -45l848 1524h174l-844 -1524h-178zM913 182l41 178l535 500h217l-119 -514h121l-33 -164h-127l-41 -182h-209l41 182h-426zM1124 346h254l70 301l-4 4z" />
<glyph unicode="&#xbd;" horiz-adv-x="1820" d="M242 1120l34 154q109 6 180.5 42t121.5 128h174l-199 -885h-213l127 561h-225zM414 -45l848 1524h174l-844 -1524h-178zM1036 0q6 82 34 145.5t82 111.5t104.5 79t132.5 70q125 59 190.5 109t65.5 106q0 59 -39 88.5t-101 29.5q-70 0 -114.5 -51t-49.5 -123h-208 q14 164 116.5 251t278.5 87q147 0 236 -66.5t89 -203.5q0 -86 -55 -150.5t-156 -126.5q-37 -23 -110.5 -60.5t-124.5 -68t-84 -63.5h444l-36 -164h-695z" />
<glyph unicode="&#xbe;" horiz-adv-x="1820" d="M2 827v39h197v-30q0 -59 40 -95t107 -36q76 0 126 39.5t50 109.5q0 45 -35.5 70.5t-91.5 25.5h-69l26 144h58q68 -2 122 23.5t54 80.5q0 49 -37 74.5t-90 25.5q-139 0 -174 -141h-197q20 150 117.5 227.5t257.5 77.5q137 0 228 -56t91 -181q0 -76 -49 -129.5t-127 -69.5 v-4q135 -35 135 -174q0 -156 -110.5 -231.5t-288.5 -75.5q-340 -1 -340 286zM418 -45l848 1524h174l-844 -1524h-178zM913 182l41 178l535 500h217l-119 -514h121l-33 -164h-127l-41 -182h-209l41 182h-426zM1124 346h254l70 301l-4 4z" />
<glyph unicode="&#xbf;" horiz-adv-x="1175" d="M-63 -23q0 133 75.5 223.5t208.5 166.5q111 59 166 117.5t68 160.5h270q-27 -186 -98.5 -270t-239.5 -172q-145 -82 -145 -205q0 -78 50 -119t128 -41q102 0 165.5 72t76.5 180h290q-12 -236 -169.5 -363.5t-399.5 -127.5q-190 0 -318 96t-128 282zM461 772l67 315h324 l-68 -315h-323z" />
<glyph unicode="&#xc0;" horiz-adv-x="1402" d="M-158 0l865 1462h329l244 -1462h-319l-48 326h-546l-185 -326h-340zM494 565h391l-72 582h-4zM541 1884h311l181 -291h-205z" />
<glyph unicode="&#xc1;" horiz-adv-x="1402" d="M-158 0l865 1462h329l244 -1462h-319l-48 326h-546l-185 -326h-340zM494 565h391l-72 582h-4zM766 1593l181 291h311l-287 -291h-205z" />
<glyph unicode="&#xc2;" horiz-adv-x="1402" d="M-158 0l865 1462h329l244 -1462h-319l-48 326h-546l-185 -326h-340zM494 565h391l-72 582h-4zM510 1593l281 291h258l170 -291h-205l-102 166l-178 -166h-224z" />
<glyph unicode="&#xc3;" horiz-adv-x="1402" d="M-158 0l865 1462h329l244 -1462h-319l-48 326h-546l-185 -326h-340zM494 565h391l-72 582h-4zM519 1615q25 113 81 181.5t177 68.5q39 0 131 -35q86 -37 135 -36q43 0 65.5 20.5t20.5 50.5h141q-33 -106 -63 -151q-57 -82 -166 -82q-59 0 -168 35q-96 35 -143 34 q-39 0 -57.5 -21.5t-28.5 -64.5h-125z" />
<glyph unicode="&#xc4;" horiz-adv-x="1402" d="M-158 0l865 1462h329l244 -1462h-319l-48 326h-546l-185 -326h-340zM494 565h391l-72 582h-4zM527 1626l49 239h268l-49 -239h-268zM928 1626l49 239h269l-49 -239h-269z" />
<glyph unicode="&#xc5;" horiz-adv-x="1402" d="M-158 0l865 1462h329l244 -1462h-319l-48 326h-546l-185 -326h-340zM494 565h391l-72 582h-4zM639 1746.5q0 102.5 74 176t176 73.5q104 0 178 -73.5t74 -176t-73.5 -176t-178.5 -73.5q-102 0 -176 73.5t-74 176zM760 1746.5q0 -61.5 36 -102.5t93.5 -41t94 41 t36.5 102.5t-36.5 102.5t-94 41t-93.5 -41t-36 -102.5z" />
<glyph unicode="&#xc6;" horiz-adv-x="2009" d="M-186 0l1026 1462h1251l-57 -270h-674l-68 -313h631l-53 -250h-631l-78 -359h694l-57 -270h-1018l68 315h-451l-223 -315h-360zM547 555h352l137 637h-41z" />
<glyph unicode="&#xc7;" horiz-adv-x="1517" d="M76 612q0 238 95 438.5t279.5 323.5t423.5 123q264 0 428 -142.5t158 -400.5h-321q0 131 -72 202t-190 71q-156 0 -268.5 -97.5t-162 -232.5t-49.5 -285q0 -164 83 -270t249 -106q129 0 225.5 86t118.5 204h322q-96 -297 -260 -429t-410 -132h-4l-53 -74h4q20 10 69 11 q76 0 132.5 -37t56.5 -107q0 -205 -240 -204q-123 0 -254 45l43 98q86 -37 172 -37q82 0 82 70q0 66 -82 65q-43 0 -82 -14l-43 49l101 143q-264 25 -407.5 190.5t-143.5 448.5z" />
<glyph unicode="&#xc8;" horiz-adv-x="1366" d="M-8 0l307 1462h1116l-55 -270h-795l-65 -313h735l-53 -250h-736l-75 -359h807l-58 -270h-1128zM522 1884h311l181 -291h-205z" />
<glyph unicode="&#xc9;" horiz-adv-x="1366" d="M-8 0l307 1462h1116l-55 -270h-795l-65 -313h735l-53 -250h-736l-75 -359h807l-58 -270h-1128zM747 1593l181 291h311l-287 -291h-205z" />
<glyph unicode="&#xca;" horiz-adv-x="1366" d="M-8 0l307 1462h1116l-55 -270h-795l-65 -313h735l-53 -250h-736l-75 -359h807l-58 -270h-1128zM491 1593l281 291h258l170 -291h-205l-102 166l-178 -166h-224z" />
<glyph unicode="&#xcb;" horiz-adv-x="1366" d="M-8 0l307 1462h1116l-55 -270h-795l-65 -313h735l-53 -250h-736l-75 -359h807l-58 -270h-1128zM508 1626l49 239h268l-49 -239h-268zM909 1626l49 239h269l-49 -239h-269z" />
<glyph unicode="&#xcc;" horiz-adv-x="606" d="M-8 0l309 1462h324l-310 -1462h-323zM143 1884h311l181 -291h-205z" />
<glyph unicode="&#xcd;" horiz-adv-x="606" d="M-8 0l309 1462h324l-310 -1462h-323zM368 1593l181 291h311l-287 -291h-205z" />
<glyph unicode="&#xce;" horiz-adv-x="606" d="M-8 0l309 1462h324l-310 -1462h-323zM106 1593l281 291h258l170 -291h-205l-102 166l-178 -166h-224z" />
<glyph unicode="&#xcf;" horiz-adv-x="606" d="M-8 0l309 1462h324l-310 -1462h-323zM129 1626l49 239h268l-49 -239h-268zM530 1626l49 239h269l-49 -239h-269z" />
<glyph unicode="&#xd0;" horiz-adv-x="1517" d="M-43 635l51 239h170l123 588h528q303 0 462 -148.5t159 -420.5q0 -397 -219 -645t-627 -248h-612l133 635h-168zM371 270h247q238 0 374 163t136 405q0 354 -319 354h-242l-67 -318h344l-51 -239h-347z" />
<glyph unicode="&#xd1;" horiz-adv-x="1517" d="M-8 0l309 1462h332l397 -1040h4l209 1040h295l-309 -1462h-322l-401 1026h-4l-209 -1026h-301zM576 1615q25 113 81 181.5t177 68.5q39 0 131 -35q86 -37 135 -36q43 0 65.5 20.5t20.5 50.5h141q-33 -106 -63 -151q-57 -82 -166 -82q-59 0 -168 35q-96 35 -143 34 q-39 0 -57.5 -21.5t-28.5 -64.5h-125z" />
<glyph unicode="&#xd2;" horiz-adv-x="1593" d="M76 612q0 238 95 438.5t279.5 323.5t423.5 123q301 0 475.5 -161.5t174.5 -465.5q0 -246 -91.5 -448.5t-275.5 -329.5t-432 -127q-307 0 -478 170t-171 477zM397 612q0 -164 83 -270t249 -106q150 0 261.5 97t161.5 233t50 282q0 168 -80 273.5t-245 105.5 q-156 0 -268.5 -97.5t-162 -232.5t-49.5 -285zM581 1884h311l181 -291h-205z" />
<glyph unicode="&#xd3;" horiz-adv-x="1593" d="M76 612q0 238 95 438.5t279.5 323.5t423.5 123q301 0 475.5 -161.5t174.5 -465.5q0 -246 -91.5 -448.5t-275.5 -329.5t-432 -127q-307 0 -478 170t-171 477zM397 612q0 -164 83 -270t249 -106q150 0 261.5 97t161.5 233t50 282q0 168 -80 273.5t-245 105.5 q-156 0 -268.5 -97.5t-162 -232.5t-49.5 -285zM806 1593l181 291h311l-287 -291h-205z" />
<glyph unicode="&#xd4;" horiz-adv-x="1593" d="M76 612q0 238 95 438.5t279.5 323.5t423.5 123q301 0 475.5 -161.5t174.5 -465.5q0 -246 -91.5 -448.5t-275.5 -329.5t-432 -127q-307 0 -478 170t-171 477zM397 612q0 -164 83 -270t249 -106q150 0 261.5 97t161.5 233t50 282q0 168 -80 273.5t-245 105.5 q-156 0 -268.5 -97.5t-162 -232.5t-49.5 -285zM550 1593l281 291h258l170 -291h-205l-102 166l-178 -166h-224z" />
<glyph unicode="&#xd5;" horiz-adv-x="1593" d="M76 612q0 238 95 438.5t279.5 323.5t423.5 123q301 0 475.5 -161.5t174.5 -465.5q0 -246 -91.5 -448.5t-275.5 -329.5t-432 -127q-307 0 -478 170t-171 477zM397 612q0 -164 83 -270t249 -106q150 0 261.5 97t161.5 233t50 282q0 168 -80 273.5t-245 105.5 q-156 0 -268.5 -97.5t-162 -232.5t-49.5 -285zM559 1615q25 113 81 181.5t177 68.5q39 0 131 -35q86 -37 135 -36q43 0 65.5 20.5t20.5 50.5h141q-33 -106 -63 -151q-57 -82 -166 -82q-59 0 -168 35q-96 35 -143 34q-39 0 -57.5 -21.5t-28.5 -64.5h-125z" />
<glyph unicode="&#xd6;" horiz-adv-x="1593" d="M76 612q0 238 95 438.5t279.5 323.5t423.5 123q301 0 475.5 -161.5t174.5 -465.5q0 -246 -91.5 -448.5t-275.5 -329.5t-432 -127q-307 0 -478 170t-171 477zM397 612q0 -164 83 -270t249 -106q150 0 261.5 97t161.5 233t50 282q0 168 -80 273.5t-245 105.5 q-156 0 -268.5 -97.5t-162 -232.5t-49.5 -285zM567 1626l49 239h268l-49 -239h-268zM968 1626l49 239h269l-49 -239h-269z" />
<glyph unicode="&#xd7;" horiz-adv-x="1228" d="M131 190l330 328l-326 328l156 155l325 -327l328 327l156 -155l-330 -328l330 -328l-156 -155l-328 330l-329 -330z" />
<glyph unicode="&#xd8;" horiz-adv-x="1593" d="M-39 33l211 196q-96 150 -96 383q0 238 95 438.5t279.5 323.5t423.5 123q311 0 480 -168l202 189l84 -93l-208 -192q92 -150 92 -363q0 -246 -91.5 -448.5t-275.5 -329.5t-432 -127q-309 0 -475 170l-207 -192zM397 612q0 -82 23 -153l706 657q-84 111 -249 111 q-156 0 -268.5 -97.5t-162 -232.5t-49.5 -285zM477 348q86 -113 252 -112q150 0 261.5 97t161.5 233t50 282q0 90 -20 153z" />
<glyph unicode="&#xd9;" horiz-adv-x="1517" d="M78 399q0 63 31 217l178 846h321l-178 -846q-31 -141 -31 -184q0 -74 63.5 -135t211.5 -61q78 0 134 17t92 44t61.5 78t40 98t30.5 123l182 866h322l-178 -850q-70 -336 -224.5 -491.5t-480.5 -155.5q-154 0 -277.5 40t-210.5 141t-87 253zM598 1884h311l181 -291h-205z " />
<glyph unicode="&#xda;" horiz-adv-x="1517" d="M78 399q0 63 31 217l178 846h321l-178 -846q-31 -141 -31 -184q0 -74 63.5 -135t211.5 -61q78 0 134 17t92 44t61.5 78t40 98t30.5 123l182 866h322l-178 -850q-70 -336 -224.5 -491.5t-480.5 -155.5q-154 0 -277.5 40t-210.5 141t-87 253zM768 1593l181 291h311 l-287 -291h-205z" />
<glyph unicode="&#xdb;" horiz-adv-x="1517" d="M78 399q0 63 31 217l178 846h321l-178 -846q-31 -141 -31 -184q0 -74 63.5 -135t211.5 -61q78 0 134 17t92 44t61.5 78t40 98t30.5 123l182 866h322l-178 -850q-70 -336 -224.5 -491.5t-480.5 -155.5q-154 0 -277.5 40t-210.5 141t-87 253zM567 1593l281 291h258 l170 -291h-205l-102 166l-178 -166h-224z" />
<glyph unicode="&#xdc;" horiz-adv-x="1517" d="M78 399q0 63 31 217l178 846h321l-178 -846q-31 -141 -31 -184q0 -74 63.5 -135t211.5 -61q78 0 134 17t92 44t61.5 78t40 98t30.5 123l182 866h322l-178 -850q-70 -336 -224.5 -491.5t-480.5 -155.5q-154 0 -277.5 40t-210.5 141t-87 253zM584 1626l49 239h268l-49 -239 h-268zM985 1626l49 239h269l-49 -239h-269z" />
<glyph unicode="&#xdd;" horiz-adv-x="1327" d="M125 1462h330l219 -622l454 622h379l-712 -909l-113 -553h-324l117 567zM673 1593l181 291h311l-287 -291h-205z" />
<glyph unicode="&#xde;" horiz-adv-x="1366" d="M-8 0l305 1462h321l-40 -198h266q240 -2 374 -99.5t134 -326.5q0 -233 -166 -371.5t-404 -138.5h-399l-70 -328h-321zM436 578h330q125 0 194.5 63.5t69.5 189.5q0 182 -227 183h-277z" />
<glyph unicode="&#xdf;" horiz-adv-x="1214" d="M-25 0l226 1067q86 430 514 430q111 0 207 -32.5t164.5 -114.5t68.5 -203q0 -129 -79 -219t-206 -119v-4q111 -27 168.5 -104.5t57.5 -194.5q0 -240 -163 -387.5t-405 -147.5q-76 0 -147 17l47 227q61 -4 90 -4q125 0 206 83t81 208q0 211 -227 207h-41l38 184h46 q115 0 179 55.5t64 167.5q0 61 -46 101t-107 40q-59 0 -100.5 -18t-67 -57t-37.5 -75t-27 -97l-213 -1010h-291z" />
<glyph unicode="&#xe0;" horiz-adv-x="1175" d="M-14 250q0 150 107.5 244t297.5 116q45 6 107.5 12.5t93.5 9.5t72 10t59 15.5t37.5 22.5t27 34.5t7.5 49.5q0 70 -56.5 99.5t-128.5 29.5q-82 0 -142 -40t-73 -116h-272q27 186 164 268t338 82q82 0 150.5 -11t139 -38.5t111.5 -86.5q39 -56 39 -134q0 -65 -23 -186 l-94 -426q-14 -51 -14 -144q0 -31 10 -61h-291v104q-119 -133 -323 -133q-166 0 -255 80t-89 199zM276 285q0 -57 46.5 -88t113.5 -31q121 0 181.5 65.5t91.5 174.5l28 102q-66 -39 -245 -51q-102 -12 -159 -47t-57 -125zM373 1481h311l181 -291h-205z" />
<glyph unicode="&#xe1;" horiz-adv-x="1175" d="M-14 250q0 150 107.5 244t297.5 116q45 6 107.5 12.5t93.5 9.5t72 10t59 15.5t37.5 22.5t27 34.5t7.5 49.5q0 70 -56.5 99.5t-128.5 29.5q-82 0 -142 -40t-73 -116h-272q27 186 164 268t338 82q82 0 150.5 -11t139 -38.5t111.5 -86.5q39 -56 39 -134q0 -65 -23 -186 l-94 -426q-14 -51 -14 -144q0 -31 10 -61h-291v104q-119 -133 -323 -133q-166 0 -255 80t-89 199zM276 285q0 -57 46.5 -88t113.5 -31q121 0 181.5 65.5t91.5 174.5l28 102q-66 -39 -245 -51q-102 -12 -159 -47t-57 -125zM598 1190l181 291h311l-287 -291h-205z" />
<glyph unicode="&#xe2;" horiz-adv-x="1175" d="M-14 250q0 150 107.5 244t297.5 116q45 6 107.5 12.5t93.5 9.5t72 10t59 15.5t37.5 22.5t27 34.5t7.5 49.5q0 70 -56.5 99.5t-128.5 29.5q-82 0 -142 -40t-73 -116h-272q27 186 164 268t338 82q82 0 150.5 -11t139 -38.5t111.5 -86.5q39 -56 39 -134q0 -65 -23 -186 l-94 -426q-14 -51 -14 -144q0 -31 10 -61h-291v104q-119 -133 -323 -133q-166 0 -255 80t-89 199zM276 285q0 -57 46.5 -88t113.5 -31q121 0 181.5 65.5t91.5 174.5l28 102q-66 -39 -245 -51q-102 -12 -159 -47t-57 -125zM342 1190l281 291h258l170 -291h-205l-102 166 l-178 -166h-224z" />
<glyph unicode="&#xe3;" horiz-adv-x="1175" d="M-14 250q0 150 107.5 244t297.5 116q45 6 107.5 12.5t93.5 9.5t72 10t59 15.5t37.5 22.5t27 34.5t7.5 49.5q0 70 -56.5 99.5t-128.5 29.5q-82 0 -142 -40t-73 -116h-272q27 186 164 268t338 82q82 0 150.5 -11t139 -38.5t111.5 -86.5q39 -56 39 -134q0 -65 -23 -186 l-94 -426q-14 -51 -14 -144q0 -31 10 -61h-291v104q-119 -133 -323 -133q-166 0 -255 80t-89 199zM276 285q0 -57 46.5 -88t113.5 -31q121 0 181.5 65.5t91.5 174.5l28 102q-66 -39 -245 -51q-102 -12 -159 -47t-57 -125zM351 1212q25 113 81 181.5t177 68.5q39 0 131 -35 q86 -37 135 -36q43 0 65.5 20.5t20.5 50.5h141q-33 -106 -63 -151q-57 -82 -166 -82q-59 0 -168 35q-96 35 -143 34q-39 0 -57.5 -21.5t-28.5 -64.5h-125z" />
<glyph unicode="&#xe4;" horiz-adv-x="1175" d="M-14 250q0 150 107.5 244t297.5 116q45 6 107.5 12.5t93.5 9.5t72 10t59 15.5t37.5 22.5t27 34.5t7.5 49.5q0 70 -56.5 99.5t-128.5 29.5q-82 0 -142 -40t-73 -116h-272q27 186 164 268t338 82q82 0 150.5 -11t139 -38.5t111.5 -86.5q39 -56 39 -134q0 -65 -23 -186 l-94 -426q-14 -51 -14 -144q0 -31 10 -61h-291v104q-119 -133 -323 -133q-166 0 -255 80t-89 199zM276 285q0 -57 46.5 -88t113.5 -31q121 0 181.5 65.5t91.5 174.5l28 102q-66 -39 -245 -51q-102 -12 -159 -47t-57 -125zM359 1223l49 239h268l-49 -239h-268zM760 1223 l49 239h269l-49 -239h-269z" />
<glyph unicode="&#xe5;" horiz-adv-x="1175" d="M-14 250q0 150 107.5 244t297.5 116q45 6 107.5 12.5t93.5 9.5t72 10t59 15.5t37.5 22.5t27 34.5t7.5 49.5q0 70 -56.5 99.5t-128.5 29.5q-82 0 -142 -40t-73 -116h-272q27 186 164 268t338 82q82 0 150.5 -11t139 -38.5t111.5 -86.5q39 -56 39 -134q0 -65 -23 -186 l-94 -426q-14 -51 -14 -144q0 -31 10 -61h-291v104q-119 -133 -323 -133q-166 0 -255 80t-89 199zM276 285q0 -57 46.5 -88t113.5 -31q121 0 181.5 65.5t91.5 174.5l28 102q-66 -39 -245 -51q-102 -12 -159 -47t-57 -125zM471 1343.5q0 102.5 74 176t176 73.5 q104 0 178 -73.5t74 -176t-73.5 -176t-178.5 -73.5q-102 0 -176 73.5t-74 176zM592 1343.5q0 -61.5 36 -102.5t93.5 -41t94 41t36.5 102.5t-36.5 102.5t-94 41t-93.5 -41t-36 -102.5z" />
<glyph unicode="&#xe6;" horiz-adv-x="1857" d="M8 256q0 322 434 356q25 2 67 5.5t65.5 4.5t57.5 5t54.5 8t45 11t38.5 16.5t27.5 22.5t19.5 31.5t6 41.5q0 135 -164 135q-213 0 -231 -156h-281q70 350 521 350q104 0 203.5 -33.5t138.5 -105.5q115 139 350 139q221 0 324.5 -126.5t103.5 -352.5q0 -16 -10 -149h-762 q-10 -43 -10 -94q0 -82 61 -140.5t164 -58.5q172 0 223 162h291q-137 -356 -535 -357q-274 0 -385 197q-129 -197 -434 -197q-201 0 -292 79t-91 206zM299 293q0 -127 170 -127q240 0 289 254l16 90q-70 -39 -293 -61q-80 -8 -131 -49t-51 -107zM1044 643h484 q0 119 -44 184.5t-159 65.5q-109 0 -186 -70.5t-95 -179.5z" />
<glyph unicode="&#xe7;" d="M20 426q0 281 161 471t437 190q207 0 339.5 -97t136.5 -298h-291q0 176 -195 176q-78 0 -138 -44t-93 -113.5t-49.5 -143t-16.5 -147.5q0 -104 48.5 -167t152.5 -63q90 0 149.5 55.5t86.5 141.5h290q-131 -391 -501 -412l-58 -84h4q20 10 70 11q76 0 132 -37t56 -107 q0 -205 -239 -204q-123 0 -254 45l43 98q86 -37 172 -37q82 0 82 70q0 66 -82 65q-43 0 -82 -14l-43 49l100 145q-201 10 -309.5 123t-108.5 328z" />
<glyph unicode="&#xe8;" horiz-adv-x="1175" d="M20 434q0 266 162 459.5t422 193.5q227 0 360.5 -118.5t133.5 -343.5q0 -84 -17 -166h-780q-2 -27 -2 -62q0 -96 59.5 -151.5t173.5 -55.5q55 0 99.5 25t68 51.5t50.5 69.5h290q-72 -184 -199.5 -274.5t-348.5 -90.5q-217 0 -344.5 121t-127.5 342zM332 643h485 q0 225 -196 225q-207 0 -289 -225zM373 1481h311l181 -291h-205z" />
<glyph unicode="&#xe9;" horiz-adv-x="1175" d="M20 434q0 266 162 459.5t422 193.5q227 0 360.5 -118.5t133.5 -343.5q0 -84 -17 -166h-780q-2 -27 -2 -62q0 -96 59.5 -151.5t173.5 -55.5q55 0 99.5 25t68 51.5t50.5 69.5h290q-72 -184 -199.5 -274.5t-348.5 -90.5q-217 0 -344.5 121t-127.5 342zM332 643h485 q0 225 -196 225q-207 0 -289 -225zM598 1190l181 291h311l-287 -291h-205z" />
<glyph unicode="&#xea;" horiz-adv-x="1175" d="M20 434q0 266 162 459.5t422 193.5q227 0 360.5 -118.5t133.5 -343.5q0 -84 -17 -166h-780q-2 -27 -2 -62q0 -96 59.5 -151.5t173.5 -55.5q55 0 99.5 25t68 51.5t50.5 69.5h290q-72 -184 -199.5 -274.5t-348.5 -90.5q-217 0 -344.5 121t-127.5 342zM332 643h485 q0 225 -196 225q-207 0 -289 -225zM342 1190l281 291h258l170 -291h-205l-102 166l-178 -166h-224z" />
<glyph unicode="&#xeb;" horiz-adv-x="1175" d="M20 434q0 266 162 459.5t422 193.5q227 0 360.5 -118.5t133.5 -343.5q0 -84 -17 -166h-780q-2 -27 -2 -62q0 -96 59.5 -151.5t173.5 -55.5q55 0 99.5 25t68 51.5t50.5 69.5h290q-72 -184 -199.5 -274.5t-348.5 -90.5q-217 0 -344.5 121t-127.5 342zM332 643h485 q0 225 -196 225q-207 0 -289 -225zM359 1223l49 239h268l-49 -239h-268zM760 1223l49 239h269l-49 -239h-269z" />
<glyph unicode="&#xec;" horiz-adv-x="530" d="M-25 0l226 1059h293l-226 -1059h-293zM49 1481h311l181 -291h-205z" />
<glyph unicode="&#xed;" horiz-adv-x="530" d="M-25 0l226 1059h293l-226 -1059h-293zM274 1190l181 291h311l-287 -291h-205z" />
<glyph unicode="&#xee;" horiz-adv-x="530" d="M-25 0l226 1059h293l-226 -1059h-293zM18 1190l281 291h258l170 -291h-205l-102 166l-178 -166h-224z" />
<glyph unicode="&#xef;" horiz-adv-x="530" d="M-25 0l226 1059h293l-226 -1059h-293zM35 1223l49 239h268l-49 -239h-268zM436 1223l49 239h269l-49 -239h-269z" />
<glyph unicode="&#xf0;" horiz-adv-x="1214" d="M20 428q0 244 169 426t440 182q150 0 227 -92l4 4q-20 156 -117 289l-247 -121l-131 127l256 125q-94 78 -183 115l191 114q104 -59 186 -135l248 121l129 -125l-254 -125q184 -240 184 -596q0 -66 -10 -137.5t-32.5 -162.5t-69.5 -170t-111.5 -147.5t-166 -108.5 t-226.5 -40q-225 0 -355.5 117t-130.5 340zM311 428q0 -100 55.5 -169t153.5 -69t173 76t106.5 174.5t31.5 194.5q0 92 -52 149.5t-161 57.5q-143 0 -225 -137.5t-82 -276.5z" />
<glyph unicode="&#xf1;" horiz-adv-x="1251" d="M-25 0l222 1059h278l-33 -148h4q141 176 371 176q150 0 229.5 -72.5t79.5 -211.5q0 -45 -30 -182l-131 -621h-291l129 621q18 70 18 129q0 45 -43 76.5t-96 31.5q-123 0 -196.5 -85t-100.5 -210l-119 -563h-291zM342 1212q25 113 81 181.5t177 68.5q39 0 131 -35 q86 -37 135 -36q43 0 65.5 20.5t20.5 50.5h141q-33 -106 -63 -151q-57 -82 -166 -82q-59 0 -168 35q-96 35 -143 34q-39 0 -57.5 -21.5t-28.5 -64.5h-125z" />
<glyph unicode="&#xf2;" horiz-adv-x="1214" d="M20 428q0 279 167 469t442 190q227 0 360 -113.5t133 -334.5q0 -287 -167 -477.5t-449 -190.5q-225 0 -355.5 117t-130.5 340zM311 428q0 -100 55.5 -169t153.5 -69q102 0 176 76t104.5 174.5t30.5 194.5q0 233 -213 233q-145 0 -226 -141t-81 -299zM391 1481h311 l181 -291h-205z" />
<glyph unicode="&#xf3;" horiz-adv-x="1214" d="M20 428q0 279 167 469t442 190q227 0 360 -113.5t133 -334.5q0 -287 -167 -477.5t-449 -190.5q-225 0 -355.5 117t-130.5 340zM311 428q0 -100 55.5 -169t153.5 -69q102 0 176 76t104.5 174.5t30.5 194.5q0 233 -213 233q-145 0 -226 -141t-81 -299zM616 1190l181 291 h311l-287 -291h-205z" />
<glyph unicode="&#xf4;" horiz-adv-x="1214" d="M20 428q0 279 167 469t442 190q227 0 360 -113.5t133 -334.5q0 -287 -167 -477.5t-449 -190.5q-225 0 -355.5 117t-130.5 340zM311 428q0 -100 55.5 -169t153.5 -69q102 0 176 76t104.5 174.5t30.5 194.5q0 233 -213 233q-145 0 -226 -141t-81 -299zM360 1190l281 291 h258l170 -291h-205l-102 166l-178 -166h-224z" />
<glyph unicode="&#xf5;" horiz-adv-x="1214" d="M20 428q0 279 167 469t442 190q227 0 360 -113.5t133 -334.5q0 -287 -167 -477.5t-449 -190.5q-225 0 -355.5 117t-130.5 340zM311 428q0 -100 55.5 -169t153.5 -69q102 0 176 76t104.5 174.5t30.5 194.5q0 233 -213 233q-145 0 -226 -141t-81 -299zM369 1212 q25 113 81 181.5t177 68.5q39 0 131 -35q86 -37 135 -36q43 0 65.5 20.5t20.5 50.5h141q-33 -106 -63 -151q-57 -82 -166 -82q-59 0 -168 35q-96 35 -143 34q-39 0 -57.5 -21.5t-28.5 -64.5h-125z" />
<glyph unicode="&#xf6;" horiz-adv-x="1214" d="M20 428q0 279 167 469t442 190q227 0 360 -113.5t133 -334.5q0 -287 -167 -477.5t-449 -190.5q-225 0 -355.5 117t-130.5 340zM311 428q0 -100 55.5 -169t153.5 -69q102 0 176 76t104.5 174.5t30.5 194.5q0 233 -213 233q-145 0 -226 -141t-81 -299zM377 1223l49 239h268 l-49 -239h-268zM778 1223l49 239h269l-49 -239h-269z" />
<glyph unicode="&#xf7;" horiz-adv-x="1228" d="M98 408v219h1035v-219h-1035zM442 92q0 72 51.5 122t122.5 50q70 0 121 -51t51 -121q0 -66 -51 -120t-119 -54q-72 0 -124 51t-52 123zM442 942q0 72 51.5 123t122.5 51q70 0 121 -52t51 -122q0 -66 -51 -119t-119 -53q-72 0 -124 51t-52 121z" />
<glyph unicode="&#xf8;" horiz-adv-x="1214" d="M-55 18l149 138q-74 109 -74 272q0 279 167 469t442 190q227 0 356 -110l139 127l62 -68l-139 -127q76 -111 75 -270q0 -287 -167 -477.5t-449 -190.5q-229 0 -352 117l-150 -137zM311 428q0 -39 8 -66l469 433q-47 74 -170 73q-145 0 -226 -141t-81 -299zM356 274 q57 -84 164 -84q102 0 176 76t104.5 174.5t30.5 194.5q0 39 -6 70z" />
<glyph unicode="&#xf9;" horiz-adv-x="1251" d="M49 256q0 43 31 182l131 621h291l-129 -621q-18 -70 -19 -129q0 -45 43 -76.5t97 -31.5q123 0 196.5 85t100.5 210l118 563h291l-221 -1059h-279l33 147h-4q-141 -176 -371 -176q-150 0 -229.5 73t-79.5 212zM409 1481h311l181 -291h-205z" />
<glyph unicode="&#xfa;" horiz-adv-x="1251" d="M49 256q0 43 31 182l131 621h291l-129 -621q-18 -70 -19 -129q0 -45 43 -76.5t97 -31.5q123 0 196.5 85t100.5 210l118 563h291l-221 -1059h-279l33 147h-4q-141 -176 -371 -176q-150 0 -229.5 73t-79.5 212zM585 1190l181 291h311l-287 -291h-205z" />
<glyph unicode="&#xfb;" horiz-adv-x="1251" d="M49 256q0 43 31 182l131 621h291l-129 -621q-18 -70 -19 -129q0 -45 43 -76.5t97 -31.5q123 0 196.5 85t100.5 210l118 563h291l-221 -1059h-279l33 147h-4q-141 -176 -371 -176q-150 0 -229.5 73t-79.5 212zM378 1190l281 291h258l170 -291h-205l-102 166l-178 -166 h-224z" />
<glyph unicode="&#xfc;" horiz-adv-x="1251" d="M49 256q0 43 31 182l131 621h291l-129 -621q-18 -70 -19 -129q0 -45 43 -76.5t97 -31.5q123 0 196.5 85t100.5 210l118 563h291l-221 -1059h-279l33 147h-4q-141 -176 -371 -176q-150 0 -229.5 73t-79.5 212zM422 1223l49 239h268l-49 -239h-268zM823 1223l49 239h269 l-49 -239h-269z" />
<glyph unicode="&#xfd;" horiz-adv-x="1062" d="M-129 -362l49 241q18 0 59 -6t60 -6q47 0 83 16.5t49 31.5t33.5 51t26.5 44l-188 1049h299l92 -758h4l367 758h307l-674 -1209q-74 -133 -158.5 -178t-252.5 -45q-29 0 -82.5 5.5t-73.5 5.5zM507 1190l181 291h311l-287 -291h-205z" />
<glyph unicode="&#xfe;" horiz-adv-x="1251" d="M-121 -373l387 1835h291l-117 -536h4q86 162 314 161q188 0 294.5 -112.5t106.5 -304.5q0 -133 -36 -256t-104.5 -223.5t-181 -160t-253.5 -59.5q-98 0 -182.5 43t-116.5 127h-4l-111 -514h-291zM342 420q0 -104 53.5 -167t155.5 -63t178 74t107.5 171t31.5 197.5 t-54 168t-152 67.5q-102 0 -178 -75.5t-109 -175t-33 -197.5z" />
<glyph unicode="&#xff;" horiz-adv-x="1062" d="M-129 -362l49 241q18 0 59 -6t60 -6q47 0 83 16.5t49 31.5t33.5 51t26.5 44l-188 1049h299l92 -758h4l367 758h307l-674 -1209q-74 -133 -158.5 -178t-252.5 -45q-29 0 -82.5 5.5t-73.5 5.5zM230 1223l49 239h268l-49 -239h-268zM631 1223l49 239h269l-49 -239h-269z" />
<glyph unicode="&#x131;" horiz-adv-x="530" d="M-25 0l226 1059h293l-226 -1059h-293z" />
<glyph unicode="&#x152;" horiz-adv-x="2275" d="M76 590q0 242 92 445.5t277.5 332.5t428.5 129q252 0 371 -168l29 133h1038l-57 -270h-739l-68 -313h676l-53 -250h-674l-78 -359h754l-58 -270h-1028l25 115l-4 4q-63 -74 -165 -114t-208 -40q-266 0 -412.5 176.5t-146.5 448.5zM397 592q0 -160 73 -258t226 -98 q133 0 228.5 68.5t138.5 184.5q31 82 63.5 251t32.5 247q0 119 -83 179.5t-206 60.5q-156 0 -267 -102.5t-158.5 -242.5t-47.5 -290z" />
<glyph unicode="&#x153;" horiz-adv-x="1896" d="M20 451q0 246 178.5 441t438.5 195q113 0 209 -43t147 -129q51 76 156.5 124t206.5 48q223 0 347 -122.5t124 -341.5q0 -57 -21 -164h-772q-6 -33 -6 -70q0 -86 56.5 -142.5t152.5 -56.5q86 0 147.5 36t85.5 104h291q-53 -174 -197.5 -266.5t-332.5 -92.5 q-131 0 -223.5 38t-153.5 138q-121 -176 -381 -176q-125 0 -217 41t-141 112t-72 152t-23 175zM311 412q0 -96 50.5 -159t148.5 -63q102 0 173 86t98.5 191.5t27.5 210.5q0 80 -46 135t-138 55q-104 0 -179 -84t-105 -183t-30 -189zM1063 643h479q4 29 4 45q0 72 -52 126 t-140 54q-119 0 -184.5 -59.5t-106.5 -165.5z" />
<glyph unicode="&#x178;" horiz-adv-x="1327" d="M125 1462h330l219 -622l454 622h379l-712 -909l-113 -553h-324l117 567zM434 1626l49 239h268l-49 -239h-268zM835 1626l49 239h269l-49 -239h-269z" />
<glyph unicode="&#x2c6;" horiz-adv-x="530" d="M18 1190l281 291h258l170 -291h-205l-102 166l-178 -166h-224z" />
<glyph unicode="&#x2da;" horiz-adv-x="530" d="M147 1343.5q0 102.5 74 176t176 73.5q104 0 178 -73.5t74 -176t-73.5 -176t-178.5 -73.5q-102 0 -176 73.5t-74 176zM268 1343.5q0 -61.5 36 -102.5t93.5 -41t94 41t36.5 102.5t-36.5 102.5t-94 41t-93.5 -41t-36 -102.5z" />
<glyph unicode="&#x2dc;" horiz-adv-x="530" d="M27 1212q25 113 81 181.5t177 68.5q39 0 131 -35q86 -37 135 -36q43 0 65.5 20.5t20.5 50.5h141q-33 -106 -63 -151q-57 -82 -166 -82q-59 0 -168 35q-96 35 -143 34q-39 0 -57.5 -21.5t-28.5 -64.5h-125z" />
<glyph unicode="&#x3bc;" horiz-adv-x="1251" d="M-96 -373l307 1432h291l-129 -621q-18 -70 -19 -129q0 -45 43 -76.5t97 -31.5q123 0 196.5 85t100.5 210l118 563h291l-221 -1059h-279l33 147h-4q-141 -176 -371 -176q-43 0 -90 11l-73 -355h-291z" />
<glyph unicode="&#x2000;" horiz-adv-x="997" />
<glyph unicode="&#x2001;" horiz-adv-x="1996" />
<glyph unicode="&#x2002;" horiz-adv-x="997" />
<glyph unicode="&#x2003;" horiz-adv-x="1996" />
<glyph unicode="&#x2004;" horiz-adv-x="665" />
<glyph unicode="&#x2005;" horiz-adv-x="497" />
<glyph unicode="&#x2006;" horiz-adv-x="331" />
<glyph unicode="&#x2007;" horiz-adv-x="331" />
<glyph unicode="&#x2008;" horiz-adv-x="247" />
<glyph unicode="&#x2009;" horiz-adv-x="399" />
<glyph unicode="&#x200a;" horiz-adv-x="110" />
<glyph unicode="&#x2010;" horiz-adv-x="833" d="M55 434l54 250h616l-53 -250h-617z" />
<glyph unicode="&#x2011;" horiz-adv-x="833" d="M55 434l54 250h616l-53 -250h-617z" />
<glyph unicode="&#x2012;" horiz-adv-x="833" d="M55 434l54 250h616l-53 -250h-617z" />
<glyph unicode="&#x2013;" horiz-adv-x="1024" d="M-59 434l53 250h1024l-53 -250h-1024z" />
<glyph unicode="&#x2014;" horiz-adv-x="2048" d="M207 434l53 250h1516l-54 -250h-1515z" />
<glyph unicode="&#x2018;" horiz-adv-x="569" d="M160 805l65 315q31 154 121 245t275 97l-31 -143q-88 -16 -126 -61.5t-56 -137.5h141l-66 -315h-323z" />
<glyph unicode="&#x2019;" horiz-adv-x="569" d="M154 805l30 143q88 16 126 61.5t57 137.5h-142l66 315h323l-65 -315q-31 -154 -121 -245t-274 -97z" />
<glyph unicode="&#x201a;" horiz-adv-x="569" d="M-98 -342l30 143q88 16 126 61.5t57 137.5h-142l66 315h323l-65 -315q-31 -154 -121 -245t-274 -97z" />
<glyph unicode="&#x201c;" horiz-adv-x="985" d="M135 805l66 315q31 154 121 245t274 97l-31 -143q-88 -16 -126 -61.5t-56 -137.5h141l-65 -315h-324zM567 805l66 315q31 154 121 245t274 97l-31 -143q-88 -16 -125.5 -61.5t-56.5 -137.5h141l-65 -315h-324z" />
<glyph unicode="&#x201d;" horiz-adv-x="985" d="M129 805l31 143q88 16 126 61.5t56 137.5h-141l65 315h324l-66 -315q-31 -154 -121 -245t-274 -97zM561 805l31 143q88 16 126 61.5t56 137.5h-141l65 315h324l-66 -315q-31 -154 -121 -245t-274 -97z" />
<glyph unicode="&#x201e;" horiz-adv-x="985" d="M-94 -342l31 143q88 16 125.5 61.5t56.5 137.5h-142l66 315h324l-66 -315q-31 -154 -121 -245t-274 -97zM338 -342l31 143q88 16 125.5 61.5t56.5 137.5h-141l65 315h324l-66 -315q-31 -154 -121 -245t-274 -97z" />
<glyph unicode="&#x2022;" horiz-adv-x="1024" d="M147 731.5q0 151.5 106.5 258t258.5 106.5t259.5 -106.5t107.5 -258t-107.5 -259t-259.5 -107.5t-258.5 107.5t-106.5 259z" />
<glyph unicode="&#x2026;" horiz-adv-x="2048" d="M33 0l67 315h324l-68 -315h-323zM715 0l67 315h324l-68 -315h-323zM1397 0l67 315h324l-68 -315h-323z" />
<glyph unicode="&#x202f;" horiz-adv-x="399" />
<glyph unicode="&#x2039;" horiz-adv-x="530" d="M35 446l57 267l371 235l-53 -252l-226 -139l158 -174l-45 -219z" />
<glyph unicode="&#x203a;" horiz-adv-x="530" d="M-10 164l53 252l225 139l-157 174l45 219l262 -282l-58 -267z" />
<glyph unicode="&#x205f;" horiz-adv-x="497" />
<glyph unicode="&#x2122;" horiz-adv-x="2027" d="M127 1298v164h688v-164h-240v-680h-208v680h-240zM924 618v844h278l211 -555l211 555h277v-844h-197v599h-4l-217 -599h-142l-217 599h-4v-599h-196z" />
<glyph unicode="&#xe000;" horiz-adv-x="1060" d="M0 1060h1060v-1060h-1060v1060z" />
<glyph unicode="&#xfb01;" horiz-adv-x="1251" d="M35 0l182 864h-172l41 195h174q25 119 46.5 182.5t65.5 123.5t115.5 85t184.5 25q88 0 190 -17l-45 -209q-92 6 -94 6q-31 0 -53.5 -3t-39 -15t-25.5 -19.5t-18 -32t-12.5 -33.5t-11.5 -45t-12 -48h207l-41 -195h-209l-182 -864h-291zM698 0l226 1059h290l-225 -1059 h-291zM956 1223l54 239h290l-53 -239h-291z" />
<glyph unicode="&#xfb02;" horiz-adv-x="1251" d="M35 0l182 864h-172l41 195h174q25 119 46.5 182.5t65.5 123.5t115.5 85t184.5 25q88 0 190 -17l-45 -209q-92 6 -94 6q-31 0 -53.5 -3t-39 -15t-25.5 -19.5t-18 -32t-12.5 -33.5t-11.5 -45t-12 -48h207l-41 -195h-209l-182 -864h-291zM696 0l312 1462h290l-311 -1462 h-291z" />
<glyph unicode="&#xfb03;" horiz-adv-x="1972" d="M1417 0l226 1059h293l-226 -1059h-293zM1675 1223l54 239h293l-54 -239h-293zM756 0l182 864h-172l41 195h174q25 119 46.5 182.5t65.5 123.5t115.5 85t184.5 25q88 0 190 -17l-45 -209q-92 6 -94 6q-31 0 -53.5 -3t-39 -15t-25.5 -19.5t-18 -32t-12.5 -33.5t-11.5 -45 t-12 -48h207l-41 -195h-209l-182 -864h-291zM35 0l182 864h-172l41 195h174q25 119 46.5 182.5t65.5 123.5t115.5 85t184.5 25q88 0 190 -17l-45 -209q-92 6 -94 6q-31 0 -53.5 -3t-39 -15t-25.5 -19.5t-18 -32t-12.5 -33.5t-11.5 -45t-12 -48h207l-41 -195h-209l-182 -864 h-291z" />
<glyph unicode="&#xfb04;" horiz-adv-x="1972" d="M1417 0l312 1462h291l-312 -1462h-291zM756 0l182 864h-172l41 195h174q25 119 46.5 182.5t65.5 123.5t115.5 85t184.5 25q88 0 190 -17l-45 -209q-92 6 -94 6q-31 0 -53.5 -3t-39 -15t-25.5 -19.5t-18 -32t-12.5 -33.5t-11.5 -45t-12 -48h207l-41 -195h-209l-182 -864 h-291zM35 0l182 864h-172l41 195h174q25 119 46.5 182.5t65.5 123.5t115.5 85t184.5 25q88 0 190 -17l-45 -209q-92 6 -94 6q-31 0 -53.5 -3t-39 -15t-25.5 -19.5t-18 -32t-12.5 -33.5t-11.5 -45t-12 -48h207l-41 -195h-209l-182 -864h-291z" />
</font>
</defs>
</svg>
